# xmcd
#
# Track frame offsets:
#	150
#	10347
#	29131
#	41997
#	59496
#	73034
#	87144
#	108826
#	124568
#	141215
#	159790
#	172224
#	192711
#	211233
#	225082
#	245073
#	261592
#	273398
#	289104
#	304489
#	320064
#
# Disc length: 4541 seconds
#
# Revision: 1
# Processed by: cddbd v1.4PL0 Copyright (c) Steve Scherf et al.
# Submitted via: audiograbber 1.82.02
#
DISCID=4511bb15
DTITLE=Barry White - xxxx
DYEAR=1967
DGENRE=blues
TTITLE0=Barry White - I ove it all
TTITLE1=fdsf
TTITLE2=Barry White -  I`m Fragile handle with care
TTITLE3=sfddf
TTITLE4=Barry White - I`ve got the world to hold me up
TTITLE5=Barry White - It may be Winter Outside
TTITLE6=Barry White - Just The way You Are
TTITLE7=Barry White - Let the Music Play
TTITLE8=sssa
TTITLE9=sdsd
TTITLE10=sdsd
TTITLE11=sdsds
TTITLE12=Barry White - The right night
TTITLE13=Barry White - Under the influence of love
TTITLE14=sdsds
TTITLE15=dsdsd
TTITLE16=sdsds
TTITLE17=ds
TTITLE18=sdsds
TTITLE19=Barry White - Your heart and soul
TTITLE20=Chris de Burgh - Bordeline
EXTD=
EXTT0=
EXTT1=
EXTT2=
EXTT3=
EXTT4=
EXTT5=
EXTT6=
EXTT7=
EXTT8=
EXTT9=
EXTT10=
EXTT11=
EXTT12=
EXTT13=
EXTT14=
EXTT15=
EXTT16=
EXTT17=
EXTT18=
EXTT19=
EXTT20=
PLAYORDER=
